<?xml version="1.0" encoding="UTF-8"?>
<!DOCTYPE svg PUBLIC "-//W3C//DTD SVG 1.1//EN" "http://www.w3.org/Graphics/SVG/1.1/DTD/svg11.dtd">
<!-- Creator: CorelDRAW X6 -->
<svg xmlns="http://www.w3.org/2000/svg" xml:space="preserve" width="12in" height="6in" version="1.1" style="shape-rendering:geometricPrecision; text-rendering:geometricPrecision; image-rendering:optimizeQuality; fill-rule:evenodd; clip-rule:evenodd"
viewBox="0 0 4000 2000"
 xmlns:xlink="http://www.w3.org/1999/xlink">
 <defs>
  <style type="text/css">
   <![CDATA[
    .fil0 {fill:#8EB8E3}
    .fil1 {fill:#ED8E8B}
   ]]>
  </style>
 </defs>
 <g id="__x0023_Layer_x0020_1">
  <metadata id="CorelCorpID_0Corel-Layer"/>
  <path class="fil0" d="M3114 1159l-84 0 -121 -155 0 155 -69 0 0 -220 0 -97 21 0 48 0 0 48 0 50 0 50 97 -125c11,-14 25,-22 43,-22l53 0 -108 152 120 165z"/>
  <path class="fil0" d="M2732 1159l-62 -108 -36 -63 47 0c14,0 25,-4 34,-11 8,-8 12,-17 12,-30 0,-12 -4,-22 -12,-30 -8,-8 -20,-11 -34,-11l-55 0 0 56 0 27 0 63 0 13 0 96 -69 0 0 -284c0,-19 15,-34 34,-34l94 0c32,0 58,10 79,30 21,20 32,45 32,75 0,21 -5,39 -16,55 -10,16 -24,29 -42,37l70 120 -77 0z"/>
  <path class="fil0" d="M2352 1166c-24,0 -46,-4 -67,-13 -21,-8 -39,-20 -54,-35 -15,-15 -27,-32 -35,-53 -9,-21 -13,-42 -13,-66 0,-23 4,-45 13,-66 9,-20 20,-38 35,-53 15,-15 33,-26 54,-35 21,-8 43,-13 67,-13 24,0 46,4 67,13 21,8 39,20 54,35 15,15 27,32 35,53 9,20 13,42 13,66 0,23 -4,45 -13,66 -9,20 -20,38 -35,53 -15,15 -33,26 -54,35 -21,8 -43,13 -67,13zm-71 -94l0 0c19,19 43,29 71,29 28,0 52,-10 71,-29 19,-19 28,-43 28,-72 0,-29 -9,-53 -28,-72 -19,-19 -42,-29 -71,-29 -28,0 -52,10 -71,29 -19,19 -29,43 -29,72 0,28 10,52 29,72z"/>
  <path class="fil0" d="M2166 905l-66 0 -66 0 0 82 66 0 43 0 0 62 -109 0 0 35 0 74 -69 0 0 -74 0 -50 0 -129 0 -7 0 -23c0,-19 15,-34 34,-34l208 0 -41 64z"/>
  <path class="fil1" d="M1581 1159c-29,-78 -57,-156 -86,-234l-41 114 35 0 22 60 -78 0 -22 60 -73 0 118 -302c4,-10 13,-16 23,-16l31 0c10,0 19,6 23,16l122 302 -74 0z"/>
  <path class="fil1" d="M1309 841l72 0 -98 318 -61 0 -71 -178 -69 178 -61 0 -100 -318 73 0 62 211 89 -215c1,-3 3,-4 6,-4 3,0 5,2 6,4l91 215 61 -211z"/>
  <path class="fil1" d="M1851 1159l-62 -108 -36 -63 47 0c14,0 25,-4 34,-11 8,-8 12,-17 12,-30 0,-12 -4,-22 -12,-30 -8,-8 -20,-11 -34,-11l-55 0 0 56 0 27 0 63 0 13 0 96 -69 0 0 -284c0,-19 15,-34 34,-34l94 0c32,0 58,10 79,30 21,20 32,45 32,75 0,21 -5,39 -16,55 -10,16 -24,29 -42,37l70 120 -77 0z"/>
  <path class="fil1" d="M921 730l973 0c19,0 34,15 34,34l0 20 -973 0c-19,0 -34,-15 -34,-34l0 -20z"/>
  <path class="fil0" d="M1965 1216l1115 0c19,0 34,15 34,34l0 20 -1115 0c-19,0 -34,-15 -34,-34l0 -20z"/>
 </g>
</svg>
